<svg width="38" height="36" viewBox="0 0 38 36" fill="none" xmlns="http://www.w3.org/2000/svg">
<path d="M15.4 4H23.6286M7.17143 4H3C1.89543 4 1 4.89543 1 6V33C1 34.1046 1.89543 35 3 35H35C36.1046 35 37 34.1046 37 33V6C37 4.89543 36.1046 4 35 4H31.3429" stroke="#EE7049" stroke-width="2" stroke-linecap="round" stroke-linejoin="round"/>
<path d="M11 1V6" stroke="#EE7049" stroke-width="2" stroke-linecap="round"/>
<path d="M27 1V6" stroke="#EE7049" stroke-width="2" stroke-linecap="round"/>
<circle cx="10" cy="14" r="2" fill="#EE7049"/>
<circle cx="10" cy="14" r="2" fill="#EE7049"/>
<circle cx="19" cy="14" r="2" fill="#EE7049"/>
<circle cx="19" cy="14" r="2" fill="#EE7049"/>
<circle cx="28" cy="14" r="2" fill="#EE7049"/>
<circle cx="28" cy="14" r="2" fill="#EE7049"/>
<circle cx="10" cy="26" r="2" fill="#EE7049"/>
<circle cx="10" cy="26" r="2" fill="#EE7049"/>
<circle cx="19" cy="26" r="2" fill="#EE7049"/>
<circle cx="19" cy="26" r="2" fill="#EE7049"/>
<circle cx="28" cy="26" r="2" fill="#EE7049"/>
<circle cx="28" cy="26" r="2" fill="#EE7049"/>
<circle cx="10" cy="20" r="2" fill="#EE7049"/>
<circle cx="10" cy="20" r="2" fill="#EE7049"/>
<circle cx="19" cy="20" r="2" fill="#EE7049"/>
<circle cx="19" cy="20" r="2" fill="#EE7049"/>
<circle cx="28" cy="20" r="2" fill="#EE7049"/>
<circle cx="28" cy="20" r="2" fill="#EE7049"/>
</svg>
