<svg width="38" height="36" viewBox="0 0 38 36" fill="none" xmlns="http://www.w3.org/2000/svg">
<path fill-rule="evenodd" clip-rule="evenodd" d="M3 5C2.44772 5 2 5.44772 2 6V33C2 33.5523 2.44772 34 3 34H35C35.5523 34 36 33.5523 36 33V6C36 5.44771 35.5523 5 35 5H31.3429C30.7906 5 30.3429 4.55228 30.3429 4C30.3429 3.44772 30.7906 3 31.3429 3H35C36.6569 3 38 4.34315 38 6V33C38 34.6569 36.6569 36 35 36H3C1.34315 36 0 34.6569 0 33V6C0 4.34315 1.34315 3 3 3H7.17143C7.72371 3 8.17143 3.44772 8.17143 4C8.17143 4.55228 7.72371 5 7.17143 5H3ZM14.4 4C14.4 3.44772 14.8477 3 15.4 3H23.6286C24.1809 3 24.6286 3.44772 24.6286 4C24.6286 4.55228 24.1809 5 23.6286 5H15.4C14.8477 5 14.4 4.55228 14.4 4Z" fill="#4379B7"/>
<path fill-rule="evenodd" clip-rule="evenodd" d="M11 0C11.5523 0 12 0.447715 12 1V6C12 6.55228 11.5523 7 11 7C10.4477 7 10 6.55228 10 6V1C10 0.447715 10.4477 0 11 0Z" fill="#4379B7"/>
<path fill-rule="evenodd" clip-rule="evenodd" d="M27 0C27.5523 0 28 0.447715 28 1V6C28 6.55228 27.5523 7 27 7C26.4477 7 26 6.55228 26 6V1C26 0.447715 26.4477 0 27 0Z" fill="#4379B7"/>
<path d="M12 14C12 15.1046 11.1046 16 10 16C8.89543 16 8 15.1046 8 14C8 12.8954 8.89543 12 10 12C11.1046 12 12 12.8954 12 14Z" fill="#4379B7"/>
<path d="M12 14C12 15.1046 11.1046 16 10 16C8.89543 16 8 15.1046 8 14C8 12.8954 8.89543 12 10 12C11.1046 12 12 12.8954 12 14Z" fill="#4379B7"/>
<path d="M21 14C21 15.1046 20.1046 16 19 16C17.8954 16 17 15.1046 17 14C17 12.8954 17.8954 12 19 12C20.1046 12 21 12.8954 21 14Z" fill="#4379B7"/>
<path d="M21 14C21 15.1046 20.1046 16 19 16C17.8954 16 17 15.1046 17 14C17 12.8954 17.8954 12 19 12C20.1046 12 21 12.8954 21 14Z" fill="#4379B7"/>
<path d="M30 14C30 15.1046 29.1046 16 28 16C26.8954 16 26 15.1046 26 14C26 12.8954 26.8954 12 28 12C29.1046 12 30 12.8954 30 14Z" fill="#4379B7"/>
<path d="M30 14C30 15.1046 29.1046 16 28 16C26.8954 16 26 15.1046 26 14C26 12.8954 26.8954 12 28 12C29.1046 12 30 12.8954 30 14Z" fill="#4379B7"/>
<path d="M12 26C12 27.1046 11.1046 28 10 28C8.89543 28 8 27.1046 8 26C8 24.8954 8.89543 24 10 24C11.1046 24 12 24.8954 12 26Z" fill="#4379B7"/>
<path d="M12 26C12 27.1046 11.1046 28 10 28C8.89543 28 8 27.1046 8 26C8 24.8954 8.89543 24 10 24C11.1046 24 12 24.8954 12 26Z" fill="#4379B7"/>
<path d="M21 26C21 27.1046 20.1046 28 19 28C17.8954 28 17 27.1046 17 26C17 24.8954 17.8954 24 19 24C20.1046 24 21 24.8954 21 26Z" fill="#4379B7"/>
<path d="M21 26C21 27.1046 20.1046 28 19 28C17.8954 28 17 27.1046 17 26C17 24.8954 17.8954 24 19 24C20.1046 24 21 24.8954 21 26Z" fill="#4379B7"/>
<path d="M30 26C30 27.1046 29.1046 28 28 28C26.8954 28 26 27.1046 26 26C26 24.8954 26.8954 24 28 24C29.1046 24 30 24.8954 30 26Z" fill="#4379B7"/>
<path d="M30 26C30 27.1046 29.1046 28 28 28C26.8954 28 26 27.1046 26 26C26 24.8954 26.8954 24 28 24C29.1046 24 30 24.8954 30 26Z" fill="#4379B7"/>
<path d="M12 20C12 21.1046 11.1046 22 10 22C8.89543 22 8 21.1046 8 20C8 18.8954 8.89543 18 10 18C11.1046 18 12 18.8954 12 20Z" fill="#4379B7"/>
<path d="M12 20C12 21.1046 11.1046 22 10 22C8.89543 22 8 21.1046 8 20C8 18.8954 8.89543 18 10 18C11.1046 18 12 18.8954 12 20Z" fill="#4379B7"/>
<path d="M21 20C21 21.1046 20.1046 22 19 22C17.8954 22 17 21.1046 17 20C17 18.8954 17.8954 18 19 18C20.1046 18 21 18.8954 21 20Z" fill="#4379B7"/>
<path d="M21 20C21 21.1046 20.1046 22 19 22C17.8954 22 17 21.1046 17 20C17 18.8954 17.8954 18 19 18C20.1046 18 21 18.8954 21 20Z" fill="#4379B7"/>
<path d="M30 20C30 21.1046 29.1046 22 28 22C26.8954 22 26 21.1046 26 20C26 18.8954 26.8954 18 28 18C29.1046 18 30 18.8954 30 20Z" fill="#4379B7"/>
<path d="M30 20C30 21.1046 29.1046 22 28 22C26.8954 22 26 21.1046 26 20C26 18.8954 26.8954 18 28 18C29.1046 18 30 18.8954 30 20Z" fill="#4379B7"/>
</svg>
