<svg width="27" height="28" viewBox="0 0 27 28" fill="none" xmlns="http://www.w3.org/2000/svg">
<path fill-rule="evenodd" clip-rule="evenodd" d="M21.4393 2.3534C22.0251 1.76762 22.9749 1.76762 23.5607 2.3534L24.7322 3.52498C25.318 4.11076 25.318 5.06051 24.7322 5.64629L24 6.37851L20.7071 3.08562L21.4393 2.3534ZM20 3.79272L23.2929 7.08562L14 16.3785L10.7071 13.0856L20 3.79272ZM10 13.7927L9.94744 13.8453L8.71261 18.373L13.2403 17.1382L13.2929 17.0856L10 13.7927ZM24.2678 1.6463C23.2915 0.669984 21.7085 0.669986 20.7322 1.6463L9.14644 13.2321C9.08492 13.2936 9.04051 13.3701 9.01761 13.4541L7.51761 18.9541C7.4704 19.1272 7.51957 19.3123 7.64644 19.4392C7.77332 19.5661 7.95845 19.6152 8.13155 19.568L13.6316 18.068C13.7155 18.0451 13.792 18.0007 13.8535 17.9392L25.4393 6.3534C26.4156 5.37709 26.4156 3.79418 25.4393 2.81787L24.2678 1.6463ZM1 5.58563C1 4.75721 1.67157 4.08563 2.5 4.08563H10C10.2761 4.08563 10.5 3.86177 10.5 3.58563C10.5 3.30949 10.2761 3.08563 10 3.08563H2.5C1.11929 3.08563 0 4.20492 0 5.58563V24.5856C0 25.9663 1.11929 27.0856 2.5 27.0856H22.5C23.8807 27.0856 25 25.9663 25 24.5856V17.0856C25 16.8095 24.7761 16.5856 24.5 16.5856C24.2239 16.5856 24 16.8095 24 17.0856V24.5856C24 25.4141 23.3284 26.0856 22.5 26.0856H2.5C1.67157 26.0856 1 25.4141 1 24.5856V5.58563Z" fill="#437F79"/>
</svg>
