<svg width="42" height="38" viewBox="0 0 42 38" fill="none" xmlns="http://www.w3.org/2000/svg">
<path d="M14.8245 11.895L24.2785 2.82274C26.4702 0.719574 29.9429 0.799941 32.0349 3.00224L33.7513 4.80909C35.8434 7.01139 35.7626 10.5017 33.5709 12.6048L24.2171 21.5808C22.0255 23.684 18.5528 23.6036 16.4607 21.4013L14.2917 19.1179L13.5702 19.8103L15.7392 22.0937C18.2116 24.6964 22.3157 24.7914 24.9059 22.3058L34.2596 13.3299C36.8498 10.8443 36.9453 6.71943 34.4728 4.11671L32.7565 2.30986C30.284 -0.292863 26.18 -0.387841 23.5898 2.09772L14.1357 11.1699L14.8245 11.895Z" fill="#9A9A9A"/>
<path d="M21.3593 25.7464L12.7131 34.3927C10.5652 36.5406 7.0916 36.5318 4.95461 34.3731L3.328 32.7299C1.19101 30.5712 1.19984 27.08 3.34773 24.9321L11.7058 16.574C13.8537 14.4261 17.3273 14.4349 19.4643 16.5936L21.6 18.7511L22.3071 18.0439L20.1714 15.8865C17.6459 13.3353 13.5407 13.3249 11.0023 15.8633L2.64421 24.2214C0.105799 26.7598 0.0953604 30.8858 2.62089 33.437L4.2475 35.0802C6.77304 37.6314 10.8782 37.6418 13.4166 35.1034L22.0629 26.4571L21.3593 25.7464Z" fill="#9A9A9A"/>
<path fill-rule="evenodd" clip-rule="evenodd" d="M34.5 37.0004C38.0899 37.0004 41 34.0903 41 30.5004C41 26.9106 38.0899 24.0004 34.5 24.0004C30.9102 24.0004 28 26.9106 28 30.5004C28 34.0903 30.9102 37.0004 34.5 37.0004ZM34.5 38.0004C38.6422 38.0004 42 34.6425 42 30.5004C42 26.3583 38.6422 23.0004 34.5 23.0004C30.3579 23.0004 27 26.3583 27 30.5004C27 34.6425 30.3579 38.0004 34.5 38.0004Z" fill="#9A9A9A"/>
<path d="M35 26.5004C35 26.2243 34.7762 26.0004 34.5 26.0004C34.2239 26.0004 34 26.2243 34 26.5004V30.0004H30.5C30.2239 30.0004 30 30.2243 30 30.5004C30 30.7765 30.2239 31.0004 30.5 31.0004H34V34.5004C34 34.7765 34.2239 35.0004 34.5 35.0004C34.7762 35.0004 35 34.7765 35 34.5004V31.0004H38.5C38.7762 31.0004 39 30.7765 39 30.5004C39 30.2243 38.7762 30.0004 38.5 30.0004H35V26.5004Z" fill="#9A9A9A"/>
</svg>
