<svg width="41" height="41" viewBox="0 0 41 41" fill="none" xmlns="http://www.w3.org/2000/svg">
<path fill-rule="evenodd" clip-rule="evenodd" d="M40.0654 9.58099C40.6441 10.1638 40.6456 11.1044 40.0686 11.6903L31.0254 20.8746C30.0843 21.8303 28.4592 21.1673 28.4571 19.8269L28.4521 16.5538C24.4832 15.5102 21.0771 16.9762 18.3746 19.3315C15.5826 21.7648 13.594 25.1098 12.6245 27.4435C12.5303 27.6703 12.2853 27.7951 12.0465 27.738C11.8076 27.6809 11.6456 27.4588 11.6642 27.214C12.3703 17.8924 15.3502 12.3687 18.8701 9.27767C22.1325 6.41281 25.812 5.68056 28.4356 5.91478L28.4288 1.50708C28.4267 0.166656 30.0498 -0.505106 30.9938 0.445492L40.0654 9.58099ZM29.0902 15.6943C29.3067 15.7588 29.4468 15.957 29.4475 16.1718L29.4515 16.1718L29.4571 19.8242C29.4578 20.271 29.9995 20.492 30.3132 20.1734L39.3565 10.9891C39.5488 10.7938 39.5483 10.4803 39.3554 10.286L30.2838 1.15053C29.9691 0.83366 29.4281 1.05758 29.4288 1.50439L29.4363 6.37492C29.4488 6.43276 29.4511 6.4938 29.4415 6.55576C29.3997 6.8287 29.1444 7.01601 28.8715 6.97411C26.5005 6.61018 22.8055 7.15263 19.53 10.0291C16.6041 12.5984 13.9692 17.0699 12.9511 24.5326C14.0881 22.5381 15.6971 20.3385 17.7176 18.5776C20.6644 16.0094 24.5381 14.3374 29.0902 15.6943ZM1 12.3069C1 11.4785 1.67157 10.8069 2.5 10.8069H11.5231C11.7992 10.8069 12.0231 10.583 12.0231 10.3069C12.0231 10.0307 11.7992 9.80688 11.5231 9.80688H2.5C1.11929 9.80688 0 10.9262 0 12.3069V38.0001C0 39.3808 1.11928 40.5001 2.5 40.5001H31.5692C32.9499 40.5001 34.0692 39.3808 34.0692 38.0001V26.6762C34.0692 26.4001 33.8453 26.1762 33.5692 26.1762C33.293 26.1762 33.0692 26.4001 33.0692 26.6762V38.0001C33.0692 38.8285 32.3976 39.5001 31.5692 39.5001H2.5C1.67157 39.5001 1 38.8285 1 38.0001V12.3069Z" fill="#9A9A9A"/>
</svg>
