<svg width="38" height="34" viewBox="0 0 38 34" fill="none" xmlns="http://www.w3.org/2000/svg">
<path d="M15.4 4.11426H23.6286M7.17143 4.11426H3C1.89543 4.11426 1 5.00969 1 6.11426V30.3578C1 31.4624 1.89543 32.3578 3 32.3578H35C36.1046 32.3578 37 31.4624 37 30.3578V6.11426C37 5.00969 36.1046 4.11426 35 4.11426H31.3429" stroke="#4379B7" stroke-width="2" stroke-linecap="round" stroke-linejoin="round"/>
<path d="M11 1.38086V5.93627" stroke="#4379B7" stroke-width="2" stroke-linecap="round"/>
<path d="M27 1.38086V5.93627" stroke="#4379B7" stroke-width="2" stroke-linecap="round"/>
<ellipse cx="10" cy="13.2245" rx="2" ry="1.82217" fill="#4379B7"/>
<ellipse cx="10" cy="13.2245" rx="2" ry="1.82217" fill="#4379B7"/>
<ellipse cx="19" cy="13.2245" rx="2" ry="1.82217" fill="#4379B7"/>
<ellipse cx="19" cy="13.2245" rx="2" ry="1.82217" fill="#4379B7"/>
<ellipse cx="28" cy="13.2245" rx="2" ry="1.82217" fill="#4379B7"/>
<ellipse cx="28" cy="13.2245" rx="2" ry="1.82217" fill="#4379B7"/>
<ellipse cx="10" cy="24.1581" rx="2" ry="1.82217" fill="#4379B7"/>
<ellipse cx="10" cy="24.1581" rx="2" ry="1.82217" fill="#4379B7"/>
<ellipse cx="19" cy="24.1581" rx="2" ry="1.82217" fill="#4379B7"/>
<ellipse cx="19" cy="24.1581" rx="2" ry="1.82217" fill="#4379B7"/>
<ellipse cx="28" cy="24.1581" rx="2" ry="1.82217" fill="#4379B7"/>
<ellipse cx="28" cy="24.1581" rx="2" ry="1.82217" fill="#4379B7"/>
<ellipse cx="10" cy="18.6913" rx="2" ry="1.82217" fill="#4379B7"/>
<ellipse cx="10" cy="18.6913" rx="2" ry="1.82217" fill="#4379B7"/>
<ellipse cx="19" cy="18.6913" rx="2" ry="1.82217" fill="#4379B7"/>
<ellipse cx="19" cy="18.6913" rx="2" ry="1.82217" fill="#4379B7"/>
<ellipse cx="28" cy="18.6913" rx="2" ry="1.82217" fill="#4379B7"/>
<ellipse cx="28" cy="18.6913" rx="2" ry="1.82217" fill="#4379B7"/>
</svg>
