<svg width="61" height="48" viewBox="0 0 61 48" fill="none" xmlns="http://www.w3.org/2000/svg">
<path fill-rule="evenodd" clip-rule="evenodd" d="M28.8961 0.434437C29.7057 -0.144813 30.7942 -0.144812 31.6039 0.434437L44.3421 9.54749C46.1824 10.8641 45.251 13.7669 42.9882 13.7669H36.3V33.5459C36.3 34.831 35.2582 35.8728 33.9731 35.8728H26.5269C25.2418 35.8728 24.2 34.831 24.2 33.5459V13.7669H17.5118C15.249 13.7669 14.3175 10.8641 16.1579 9.54749L28.8961 0.434437ZM35.3692 12.8361V13.7669L35.3692 33.5459C35.3692 34.3169 34.7442 34.942 33.9731 34.942H26.5269C25.7558 34.942 25.1308 34.3169 25.1308 33.5459V13.0689H25.1307V12.8361H17.5118C16.1541 12.8361 15.5952 11.0945 16.6995 10.3045L29.4376 1.19143C29.9234 0.843882 30.5765 0.843882 31.0623 1.19143L43.8005 10.3045C44.9047 11.0945 44.3459 12.8361 42.9882 12.8361H35.3692ZM0.930769 27.0305C0.930769 26.2594 1.55585 25.6343 2.32692 25.6343H15.3577C15.6147 25.6343 15.8231 25.426 15.8231 25.1689C15.8231 24.9119 15.6147 24.7036 15.3577 24.7036H2.32692C1.0418 24.7036 0 25.7454 0 27.0305V43V44.7151V45C0 46.0575 0.820782 46.9234 1.86009 46.9952C2.01091 47.0259 2.16703 47.042 2.32692 47.042H58.1731C59.4582 47.042 60.5 46.0002 60.5 44.7151V27.0305C60.5 25.7454 59.4582 24.7036 58.1731 24.7036H45.1423C44.8853 24.7036 44.6769 24.9119 44.6769 25.1689C44.6769 25.426 44.8853 25.6343 45.1423 25.6343H58.1731C58.9441 25.6343 59.5692 26.2594 59.5692 27.0305V43H0.930769V27.0305Z" fill="white"/>
</svg>
