<svg width="401" height="82" viewBox="0 0 401 82" fill="none" xmlns="http://www.w3.org/2000/svg">
<rect width="401" height="82" rx="8" fill="#86B2E3"/>
<path d="M127.84 50.288C126.608 50.288 125.48 50.088 124.456 49.688C123.432 49.288 122.512 48.664 121.696 47.816L124.096 45.392C124.608 45.92 125.168 46.328 125.776 46.616C126.4 46.904 127.088 47.048 127.84 47.048C128.8 47.048 129.528 46.88 130.024 46.544C130.52 46.208 130.768 45.736 130.768 45.128V44.936C130.768 44.296 130.576 43.84 130.192 43.568C129.808 43.28 129.208 43.136 128.392 43.136H125.488V39.92H128.248C129.736 39.92 130.48 39.304 130.48 38.072V37.952C130.48 36.784 129.64 36.2 127.96 36.2C127.288 36.2 126.632 36.336 125.992 36.608C125.352 36.864 124.816 37.232 124.384 37.712L122.176 35.408C122.88 34.64 123.728 34.04 124.72 33.608C125.728 33.176 126.808 32.96 127.96 32.96C128.952 32.96 129.84 33.072 130.624 33.296C131.408 33.504 132.072 33.816 132.616 34.232C133.176 34.632 133.6 35.12 133.888 35.696C134.192 36.272 134.344 36.92 134.344 37.64C134.344 38.216 134.248 38.72 134.056 39.152C133.88 39.568 133.632 39.92 133.312 40.208C133.008 40.496 132.64 40.72 132.208 40.88C131.792 41.04 131.344 41.144 130.864 41.192V41.336C131.344 41.368 131.808 41.464 132.256 41.624C132.72 41.784 133.12 42.016 133.456 42.32C133.808 42.624 134.088 43 134.296 43.448C134.52 43.896 134.632 44.424 134.632 45.032C134.632 45.816 134.472 46.528 134.152 47.168C133.832 47.808 133.376 48.36 132.784 48.824C132.208 49.288 131.496 49.648 130.648 49.904C129.816 50.16 128.88 50.288 127.84 50.288ZM146.57 50C145.93 50 145.394 49.8 144.962 49.4C144.546 49 144.282 48.464 144.17 47.792H144.026C143.834 48.608 143.41 49.232 142.754 49.664C142.098 50.08 141.29 50.288 140.33 50.288C139.066 50.288 138.098 49.952 137.426 49.28C136.754 48.608 136.418 47.72 136.418 46.616C136.418 45.288 136.898 44.304 137.858 43.664C138.834 43.008 140.154 42.68 141.818 42.68H143.81V41.888C143.81 41.28 143.65 40.8 143.33 40.448C143.01 40.08 142.474 39.896 141.722 39.896C141.018 39.896 140.458 40.048 140.042 40.352C139.626 40.656 139.282 41 139.01 41.384L136.898 39.512C137.41 38.76 138.05 38.176 138.818 37.76C139.602 37.328 140.658 37.112 141.986 37.112C143.778 37.112 145.122 37.504 146.018 38.288C146.914 39.072 147.362 40.216 147.362 41.72V47.24H148.538V50H146.57ZM141.65 47.816C142.242 47.816 142.746 47.688 143.162 47.432C143.594 47.176 143.81 46.76 143.81 46.184V44.696H142.082C140.69 44.696 139.994 45.168 139.994 46.112V46.472C139.994 46.936 140.138 47.28 140.426 47.504C140.714 47.712 141.122 47.816 141.65 47.816ZM150.922 37.4H159.442V40.16H154.474V50H150.922V37.4ZM161.586 37.4H165.138V39.512H165.258C165.434 38.808 165.834 38.232 166.458 37.784C167.098 37.336 167.826 37.112 168.642 37.112C170.242 37.112 171.45 37.672 172.266 38.792C173.082 39.912 173.49 41.544 173.49 43.688C173.49 45.832 173.082 47.472 172.266 48.608C171.45 49.728 170.242 50.288 168.642 50.288C168.226 50.288 167.834 50.224 167.466 50.096C167.098 49.984 166.762 49.824 166.458 49.616C166.17 49.392 165.922 49.136 165.714 48.848C165.506 48.544 165.354 48.224 165.258 47.888H165.138V54.8H161.586V37.4ZM167.466 47.408C168.138 47.408 168.69 47.176 169.122 46.712C169.57 46.232 169.794 45.592 169.794 44.792V42.608C169.794 41.808 169.57 41.176 169.122 40.712C168.69 40.232 168.138 39.992 167.466 39.992C166.794 39.992 166.234 40.16 165.786 40.496C165.354 40.816 165.138 41.264 165.138 41.84V45.56C165.138 46.136 165.354 46.592 165.786 46.928C166.234 47.248 166.794 47.408 167.466 47.408ZM183.657 37.4H186.969L182.121 51.944C181.801 52.92 181.345 53.64 180.753 54.104C180.177 54.568 179.345 54.8 178.257 54.8H176.049V52.04H178.425L178.857 50.648L174.441 37.4H177.969L179.817 43.28L180.729 46.928H180.873L181.809 43.28L183.657 37.4ZM193.165 50.288C191.917 50.288 190.861 50.096 189.997 49.712C189.149 49.312 188.373 48.752 187.669 48.032L189.757 45.92C190.685 46.976 191.829 47.504 193.189 47.504C193.909 47.504 194.445 47.384 194.797 47.144C195.149 46.888 195.325 46.544 195.325 46.112V45.848C195.325 45.128 194.853 44.768 193.909 44.768H191.125V42.416H193.597C194.541 42.416 195.013 42.056 195.013 41.336V41.096C195.013 40.728 194.853 40.44 194.533 40.232C194.213 40.008 193.733 39.896 193.093 39.896C192.437 39.896 191.845 40.032 191.317 40.304C190.789 40.56 190.365 40.92 190.045 41.384L187.933 39.512C188.557 38.744 189.317 38.152 190.213 37.736C191.109 37.32 192.157 37.112 193.357 37.112C195.101 37.112 196.405 37.44 197.269 38.096C198.149 38.736 198.589 39.56 198.589 40.568C198.589 41.384 198.373 42.016 197.941 42.464C197.509 42.912 196.837 43.2 195.925 43.328V43.448C196.837 43.544 197.557 43.84 198.085 44.336C198.629 44.816 198.901 45.456 198.901 46.256C198.901 47.52 198.397 48.512 197.389 49.232C196.381 49.936 194.973 50.288 193.165 50.288ZM201.523 37.4H205.003V42.464L204.691 45.392H204.763L206.227 42.704L209.731 37.4H212.899V50H209.419V44.936L209.731 42.008H209.659L208.195 44.696L204.691 50H201.523V37.4ZM218.691 40.16H215.043V37.4H225.891V40.16H222.243V50H218.691V40.16ZM228.031 37.4H231.583V41.144H234.895C235.503 41.144 236.071 41.24 236.599 41.432C237.127 41.624 237.583 41.912 237.967 42.296C238.367 42.664 238.679 43.12 238.903 43.664C239.127 44.208 239.239 44.84 239.239 45.56C239.239 46.28 239.127 46.92 238.903 47.48C238.679 48.024 238.367 48.488 237.967 48.872C237.583 49.24 237.127 49.52 236.599 49.712C236.071 49.904 235.503 50 234.895 50H228.031V37.4ZM234.127 47.48C234.591 47.48 234.959 47.36 235.231 47.12C235.519 46.864 235.663 46.504 235.663 46.04V45.104C235.663 44.64 235.519 44.288 235.231 44.048C234.959 43.792 234.591 43.664 234.127 43.664H231.583V47.48H234.127ZM245.74 47.24H247.396C247.604 46.936 247.788 46.592 247.948 46.208C248.108 45.824 248.236 45.384 248.332 44.888C248.444 44.376 248.524 43.8 248.572 43.16C248.62 42.52 248.644 41.792 248.644 40.976V37.4H258.772V47.24H260.932V53.36H257.716V50H248.956V53.36H245.74V47.24ZM255.22 47.24V40.16H252.052V41.168C252.052 42.896 251.956 44.232 251.764 45.176C251.588 46.104 251.372 46.792 251.116 47.24H255.22ZM268.065 50.288C267.137 50.288 266.305 50.136 265.569 49.832C264.849 49.528 264.233 49.088 263.721 48.512C263.225 47.936 262.841 47.24 262.569 46.424C262.297 45.608 262.161 44.696 262.161 43.688C262.161 42.68 262.297 41.768 262.569 40.952C262.841 40.136 263.225 39.448 263.721 38.888C264.233 38.312 264.849 37.872 265.569 37.568C266.305 37.264 267.137 37.112 268.065 37.112C268.993 37.112 269.817 37.264 270.537 37.568C271.273 37.872 271.889 38.312 272.385 38.888C272.897 39.448 273.289 40.136 273.561 40.952C273.833 41.768 273.969 42.68 273.969 43.688C273.969 44.696 273.833 45.608 273.561 46.424C273.289 47.24 272.897 47.936 272.385 48.512C271.889 49.088 271.273 49.528 270.537 49.832C269.817 50.136 268.993 50.288 268.065 50.288ZM268.065 47.48C268.769 47.48 269.313 47.264 269.697 46.832C270.081 46.4 270.273 45.784 270.273 44.984V42.416C270.273 41.616 270.081 41 269.697 40.568C269.313 40.136 268.769 39.92 268.065 39.92C267.361 39.92 266.817 40.136 266.433 40.568C266.049 41 265.857 41.616 265.857 42.416V44.984C265.857 45.784 266.049 46.4 266.433 46.832C266.817 47.264 267.361 47.48 268.065 47.48ZM276.5 37.4H280.052V42.224H281.876L283.532 39.152C283.868 38.528 284.244 38.08 284.66 37.808C285.092 37.536 285.644 37.4 286.316 37.4H287.78V40.16H286.508L285.428 42.176C285.204 42.592 284.98 42.888 284.756 43.064C284.548 43.24 284.3 43.368 284.012 43.448V43.568C284.284 43.632 284.532 43.744 284.756 43.904C284.996 44.064 285.212 44.32 285.404 44.672L286.82 47.24H288.116V50H286.46C285.788 50 285.244 49.864 284.828 49.592C284.412 49.32 284.02 48.856 283.652 48.2L281.876 44.984H280.052V50H276.5V37.4ZM298.383 37.4H301.695L296.847 51.944C296.527 52.92 296.071 53.64 295.479 54.104C294.903 54.568 294.071 54.8 292.983 54.8H290.775V52.04H293.151L293.583 50.648L289.167 37.4H292.695L294.543 43.28L295.455 46.928H295.599L296.535 43.28L298.383 37.4ZM303.5 37.4H307.34L310.508 42.56H310.604L313.772 37.4H317.612V50H314.156V41.816H314.084L313.124 43.568L310.556 47.744L307.988 43.568L307.028 41.816H306.956V50H303.5V37.4ZM326.17 50.288C325.21 50.288 324.354 50.136 323.602 49.832C322.85 49.512 322.21 49.072 321.682 48.512C321.17 47.936 320.778 47.24 320.506 46.424C320.25 45.608 320.122 44.696 320.122 43.688C320.122 42.696 320.25 41.8 320.506 41C320.762 40.184 321.138 39.488 321.634 38.912C322.146 38.336 322.77 37.896 323.506 37.592C324.242 37.272 325.082 37.112 326.026 37.112C327.066 37.112 327.954 37.288 328.69 37.64C329.442 37.992 330.05 38.464 330.514 39.056C330.994 39.648 331.338 40.336 331.546 41.12C331.77 41.888 331.882 42.696 331.882 43.544V44.6H323.794V44.792C323.794 45.624 324.018 46.288 324.466 46.784C324.914 47.264 325.618 47.504 326.578 47.504C327.314 47.504 327.914 47.36 328.378 47.072C328.842 46.768 329.274 46.408 329.674 45.992L331.45 48.2C330.89 48.856 330.154 49.368 329.242 49.736C328.346 50.104 327.322 50.288 326.17 50.288ZM326.098 39.728C325.378 39.728 324.81 39.968 324.394 40.448C323.994 40.912 323.794 41.536 323.794 42.32V42.512H328.21V42.296C328.21 41.528 328.034 40.912 327.682 40.448C327.346 39.968 326.818 39.728 326.098 39.728ZM334.39 37.4H337.942V42.224H342.214V37.4H345.766V50H342.214V44.984H337.942V50H334.39V37.4ZM351.558 40.16H347.91V37.4H358.758V40.16H355.11V50H351.558V40.16Z" fill="white"/>
<path fill-rule="evenodd" clip-rule="evenodd" d="M65.8961 16.4344C66.7057 15.8552 67.7942 15.8552 68.6039 16.4344L81.3421 25.5475C83.1824 26.8641 82.251 29.7669 79.9882 29.7669H73.3V49.5459C73.3 50.831 72.2582 51.8728 70.9731 51.8728H63.5269C62.2418 51.8728 61.2 50.831 61.2 49.5459V29.7669H54.5118C52.249 29.7669 51.3175 26.8641 53.1579 25.5475L65.8961 16.4344ZM72.3692 28.8361V29.7669L72.3692 49.5459C72.3692 50.3169 71.7442 50.942 70.9731 50.942H63.5269C62.7558 50.942 62.1308 50.3169 62.1308 49.5459V29.0689H62.1307V28.8361H54.5118C53.1541 28.8361 52.5952 27.0945 53.6995 26.3045L66.4376 17.1914C66.9234 16.8439 67.5765 16.8439 68.0623 17.1914L80.8005 26.3045C81.9047 27.0945 81.3459 28.8361 79.9882 28.8361H72.3692ZM37.9308 43.0305C37.9308 42.2594 38.5558 41.6343 39.3269 41.6343H52.3577C52.6147 41.6343 52.8231 41.426 52.8231 41.1689C52.8231 40.9119 52.6147 40.7036 52.3577 40.7036H39.3269C38.0418 40.7036 37 41.7454 37 43.0305V59V60.7151V61C37 62.0575 37.8208 62.9234 38.8601 62.9952C39.0109 63.0259 39.167 63.042 39.3269 63.042H95.1731C96.4582 63.042 97.5 62.0002 97.5 60.7151V43.0305C97.5 41.7454 96.4582 40.7036 95.1731 40.7036H82.1423C81.8853 40.7036 81.6769 40.9119 81.6769 41.1689C81.6769 41.426 81.8853 41.6343 82.1423 41.6343H95.1731C95.9441 41.6343 96.5692 42.2594 96.5692 43.0305V59H37.9308V43.0305Z" fill="white"/>
</svg>
