<svg width="118" height="97" viewBox="0 0 118 97" fill="none" xmlns="http://www.w3.org/2000/svg">
<path d="M1.12692 63.5785C-0.213684 62.7932 -0.219016 60.7346 1.11753 59.9516L57.5887 26.8684C58.1609 26.5331 58.8536 26.5311 59.4298 26.8629L116.861 59.9391C118.218 60.7205 118.223 62.8011 116.87 63.5801L59.427 96.6605C58.8526 96.9913 58.1598 96.988 57.5859 96.6518L1.12692 63.5785Z" fill="#DDE3EF"/>
<path d="M1.41439 48.7879C0.0737871 48.0025 0.0684593 45.944 1.405 45.161L57.2714 12.432C57.8436 12.0968 58.5364 12.0947 59.1125 12.4266L115.928 45.1485C117.285 45.9299 117.291 48.0104 115.938 48.7895L59.1098 81.5156C58.5353 81.8464 57.8426 81.8431 57.2687 81.5069L1.41439 48.7879Z" fill="white"/>
<path d="M2.62106 35.6678C1.28045 34.8824 1.27512 32.8239 2.61167 32.0409L56.8719 0.252876C57.4441 -0.0823504 58.1369 -0.0843961 58.713 0.247427L113.895 32.0284C115.252 32.8098 115.257 34.8903 113.905 35.6694L58.7103 67.4546C58.1358 67.7854 57.4431 67.7822 56.8692 67.446L2.62106 35.6678Z" fill="#DDE3EF"/>
</svg>
