<svg width="26" height="32" viewBox="0 0 26 32" fill="none" xmlns="http://www.w3.org/2000/svg">
<path d="M0 3.36842V28.6316C0 30.492 1.55208 32 3.46667 32H21.5743H22.0301C23.9446 32 25.4968 30.492 25.4968 28.6316V22.8571V5.76342C25.4968 4.73137 25.0099 3.75626 24.1755 3.11756L21.047 0.722555C20.4357 0.254511 19.6799 0 18.9017 0H3.46667C1.55208 0 0 1.50809 0 3.36842Z" fill="#BD322B"/>
<path fill-rule="evenodd" clip-rule="evenodd" d="M15 23.4561H3V22.4597H15V23.4561Z" fill="white"/>
<path fill-rule="evenodd" clip-rule="evenodd" d="M15 26.4409H3V25.4446H15V26.4409Z" fill="white"/>
<path d="M6.49463 14.6968H4.45898V13.6553H6.49463C6.84912 13.6553 7.13558 13.5995 7.354 13.4879C7.57243 13.3762 7.73177 13.2227 7.83203 13.0273C7.93587 12.8285 7.98779 12.6017 7.98779 12.347C7.98779 12.1063 7.93587 11.8812 7.83203 11.6719C7.73177 11.4591 7.57243 11.2881 7.354 11.159C7.13558 11.0299 6.84912 10.9654 6.49463 10.9654H4.87256V17.5385H3.52441V9.9187H6.49463C7.09977 9.9187 7.61361 10.0234 8.03613 10.2327C8.46224 10.4385 8.7863 10.7246 9.0083 11.091C9.23031 11.4538 9.34131 11.869 9.34131 12.3365C9.34131 12.8285 9.23031 13.2506 9.0083 13.603C8.7863 13.9554 8.46224 14.2258 8.03613 14.4142C7.61361 14.6026 7.09977 14.6968 6.49463 14.6968Z" fill="white"/>
<path d="M12.8218 17.5385H11.1514L11.1621 16.4971H12.8218C13.3052 16.4971 13.7098 16.3941 14.0356 16.1883C14.3651 15.9824 14.6121 15.6876 14.7769 15.3038C14.9451 14.9201 15.0293 14.463 15.0293 13.9327V13.5193C15.0293 13.1076 14.981 12.743 14.8843 12.4255C14.7912 12.108 14.6515 11.8411 14.4653 11.6248C14.2827 11.4085 14.0571 11.2445 13.7886 11.1328C13.5236 11.0212 13.2174 10.9654 12.8701 10.9654H11.1191V9.9187H12.8701C13.3893 9.9187 13.8638 10.0042 14.2935 10.1751C14.7231 10.3426 15.0938 10.5851 15.4053 10.9026C15.7204 11.2201 15.9621 11.6004 16.1304 12.0435C16.2987 12.4865 16.3828 12.982 16.3828 13.5297V13.9327C16.3828 14.4805 16.2987 14.9759 16.1304 15.419C15.9621 15.8621 15.7204 16.2424 15.4053 16.5599C15.0902 16.8739 14.7142 17.1163 14.2773 17.2873C13.8441 17.4548 13.3589 17.5385 12.8218 17.5385ZM11.8979 9.9187V17.5385H10.5498V9.9187H11.8979Z" fill="white"/>
<path d="M19.0845 9.9187V17.5385H17.7363V9.9187H19.0845ZM22.2749 13.2524V14.2938H18.7407V13.2524H22.2749ZM22.7207 9.9187V10.9654H18.7407V9.9187H22.7207Z" fill="white"/>
</svg>
