<svg width="378" height="65" viewBox="0 0 378 65" fill="none" xmlns="http://www.w3.org/2000/svg">
<path d="M160.016 56.8247V59.6001H147.944V56.8247H160.016ZM148.723 56.8247V64.4946H145.551L145.414 56.8247H148.723ZM162.586 56.8247L162.381 64.481H159.25V56.8247H162.586ZM157.815 39.6938V42.4829H150.158V39.6938H157.815ZM160.385 39.6938V59.6001H157.076V39.6938H160.385ZM149.502 39.6938H152.811L152.387 47.7876C152.323 49.0636 152.214 50.2121 152.059 51.2329C151.904 52.2537 151.712 53.1652 151.485 53.9673C151.257 54.7694 151.002 55.4757 150.719 56.0864C150.436 56.6971 150.131 57.2257 149.803 57.6724C149.484 58.1099 149.147 58.4881 148.791 58.8071C148.445 59.1261 148.099 59.3905 147.752 59.6001H146.084V56.8247H146.823C147.032 56.5877 147.251 56.2596 147.479 55.8403C147.716 55.4119 147.939 54.8514 148.149 54.1587C148.367 53.4569 148.554 52.5864 148.709 51.5474C148.873 50.5083 148.992 49.255 149.065 47.7876L149.502 39.6938ZM176.317 56.8247V59.6001H167.676V56.8247H176.317ZM168.551 39.6938V59.6001H165.229V39.6938H168.551ZM175.155 47.979V50.7134H167.676V47.979H175.155ZM176.235 39.6938V42.4829H167.676V39.6938H176.235ZM192.646 39.6938V59.6001H189.337V42.4829H182.556V59.6001H179.233V39.6938H192.646ZM203.437 42.4282L198.624 59.6001H195.152L201.468 39.6938H203.628L203.437 42.4282ZM207.279 59.6001L202.453 42.4282L202.22 39.6938H204.421L210.765 59.6001H207.279ZM207.361 52.2036V54.9927H198.091V52.2036H207.361ZM219.711 52.2173H215.514V49.4419H219.711C220.404 49.4419 220.959 49.2961 221.379 49.0044C221.798 48.7127 222.103 48.3117 222.295 47.8013C222.495 47.2909 222.596 46.7121 222.596 46.0649C222.596 45.4451 222.495 44.8618 222.295 44.3149C222.103 43.7681 221.798 43.326 221.379 42.9888C220.959 42.6515 220.404 42.4829 219.711 42.4829H216.443V59.6001H213.135V39.6938H219.711C221.032 39.6938 222.154 39.9673 223.074 40.5142C224.004 41.061 224.715 41.813 225.207 42.77C225.699 43.7179 225.945 44.8071 225.945 46.0376C225.945 47.3136 225.699 48.4165 225.207 49.3462C224.715 50.2668 224.004 50.9777 223.074 51.479C222.154 51.9712 221.032 52.2173 219.711 52.2173ZM236.217 39.6938V59.6001H232.908V39.6938H236.217ZM241.289 39.6938V42.4829H227.891V39.6938H241.289ZM249.483 42.4282L244.671 59.6001H241.198L247.514 39.6938H249.674L249.483 42.4282ZM253.325 59.6001L248.499 42.4282L248.266 39.6938H250.467L256.811 59.6001H253.325ZM253.407 52.2036V54.9927H244.137V52.2036H253.407ZM260.315 39.6938H263.337L267.917 54.5005L272.483 39.6938H275.286L269.161 59.6001H266.659L260.315 39.6938ZM259.181 39.6938H261.97L262.421 52.3677V59.6001H259.181V39.6938ZM273.837 39.6938H276.64V59.6001H273.399V52.3677L273.837 39.6938ZM291.56 56.8247V59.6001H282.919V56.8247H291.56ZM283.794 39.6938V59.6001H280.472V39.6938H283.794ZM290.398 47.979V50.7134H282.919V47.979H290.398ZM291.478 39.6938V42.4829H282.919V39.6938H291.478ZM305.332 47.979V50.7681H296.951V47.979H305.332ZM297.73 39.6938V59.6001H294.408V39.6938H297.73ZM307.93 39.6938V59.6001H304.621V39.6938H307.93ZM318.612 39.6938V59.6001H315.303V39.6938H318.612ZM323.684 39.6938V42.4829H310.285V39.6938H323.684ZM340.358 39.5571H340.714V42.3052H340.523C339.529 42.3052 338.69 42.4875 338.007 42.8521C337.323 43.2075 336.772 43.7043 336.353 44.3423C335.942 44.9712 335.646 45.7095 335.464 46.5571C335.282 47.3957 335.19 48.2935 335.19 49.2505V52.395C335.19 53.1789 335.254 53.8716 335.382 54.4731C335.509 55.0656 335.687 55.5669 335.915 55.9771C336.143 56.3781 336.403 56.6789 336.694 56.8794C336.995 57.0799 337.31 57.1802 337.638 57.1802C338.021 57.1802 338.362 57.0799 338.663 56.8794C338.964 56.6789 339.219 56.4009 339.429 56.0454C339.648 55.6808 339.812 55.2524 339.921 54.7603C340.03 54.2681 340.085 53.7303 340.085 53.147C340.085 52.5819 340.03 52.0532 339.921 51.561C339.812 51.0688 339.657 50.6405 339.456 50.2759C339.256 49.9022 339.005 49.6105 338.704 49.4009C338.403 49.1821 338.052 49.0728 337.651 49.0728C337.15 49.0728 336.703 49.2277 336.312 49.5376C335.92 49.8475 335.605 50.2485 335.368 50.7407C335.14 51.2238 335.008 51.7388 334.972 52.2856L333.782 51.8345C333.864 50.9959 334.033 50.244 334.288 49.5786C334.552 48.9132 334.89 48.3436 335.3 47.8696C335.71 47.3866 336.184 47.022 336.722 46.7759C337.259 46.5298 337.847 46.4067 338.485 46.4067C339.297 46.4067 340.003 46.589 340.605 46.9536C341.206 47.3091 341.703 47.8013 342.095 48.4302C342.487 49.05 342.774 49.7609 342.956 50.563C343.148 51.356 343.243 52.1899 343.243 53.0649C343.243 54.022 343.12 54.9152 342.874 55.7446C342.628 56.5649 342.268 57.285 341.794 57.9048C341.32 58.5246 340.737 59.0076 340.044 59.354C339.351 59.7004 338.563 59.8735 337.679 59.8735C336.767 59.8735 335.956 59.6685 335.245 59.2583C334.543 58.8481 333.946 58.283 333.454 57.563C332.971 56.8429 332.606 56.0135 332.36 55.0747C332.114 54.1359 331.991 53.1379 331.991 52.0806V50.6997C331.991 49.1867 332.137 47.7603 332.429 46.4204C332.73 45.0806 333.203 43.8957 333.851 42.8657C334.507 41.8358 335.368 41.0291 336.435 40.4458C337.501 39.8534 338.809 39.5571 340.358 39.5571ZM349.181 50.3716L346.638 49.7153L347.568 39.6938H356.742V42.5513H350.206L349.783 47.3501C350.038 47.1678 350.38 46.9901 350.808 46.8169C351.236 46.6346 351.72 46.5435 352.257 46.5435C353.068 46.5435 353.784 46.6984 354.404 47.0083C355.033 47.3182 355.566 47.7648 356.003 48.3481C356.441 48.9224 356.769 49.6196 356.988 50.4399C357.216 51.2603 357.33 52.1899 357.33 53.229C357.33 54.1496 357.216 55.0109 356.988 55.813C356.76 56.606 356.409 57.3078 355.935 57.9185C355.461 58.5291 354.869 59.0076 354.158 59.354C353.456 59.7004 352.636 59.8735 351.697 59.8735C350.986 59.8735 350.307 59.755 349.66 59.5181C349.012 59.272 348.429 58.9074 347.91 58.4243C347.399 57.9412 346.984 57.3488 346.665 56.647C346.356 55.936 346.182 55.1203 346.146 54.1997H349.249C349.313 54.8377 349.45 55.38 349.66 55.8267C349.878 56.2733 350.156 56.6151 350.494 56.8521C350.84 57.0799 351.236 57.1938 351.683 57.1938C352.093 57.1938 352.453 57.0981 352.763 56.9067C353.082 56.7062 353.342 56.4237 353.542 56.0591C353.743 55.6945 353.893 55.2661 353.994 54.7739C354.094 54.2726 354.144 53.7212 354.144 53.1196C354.144 52.5454 354.085 52.0213 353.966 51.5474C353.857 51.0643 353.688 50.6496 353.46 50.3032C353.233 49.9478 352.95 49.6743 352.613 49.4829C352.276 49.2915 351.874 49.1958 351.41 49.1958C350.799 49.1958 350.343 49.3143 350.042 49.5513C349.742 49.7791 349.455 50.0526 349.181 50.3716ZM367.957 39.6255V59.6001H364.771V43.6177L360.806 45.2583V42.4829L367.574 39.6255H367.957Z" fill="#0079C1"/>
<path d="M39.0032 39.3137H47.0212V41.894H43.207V60.1184H39.0032V39.3137Z" fill="#0079C1"/>
<path d="M51.7582 52.3167L52.476 41.894H52.722L53.4398 52.3167H51.7582V52.3167ZM47.1033 60.1184H51.2251L51.6147 54.5922H53.6038L53.9934 60.1184H58.0947L55.9005 39.3137H49.2975L47.1033 60.1184V60.1184Z" fill="#0079C1"/>
<path d="M64.1235 52.8449V56.7661C64.1235 57.2944 64.5336 57.4569 64.7797 57.4569C65.1693 57.4569 65.4359 57.1318 65.4359 56.7661V51.9103C65.4359 51.2602 65.3129 50.5491 63.7544 50.5491H62.0523V48.2736H63.8159C65.0053 48.2736 65.4359 47.9891 65.4359 46.7092V42.5848C65.4359 42.2191 65.1693 41.894 64.7797 41.894C64.5336 41.894 64.1235 42.0362 64.1235 42.5848V45.9777H59.9197V43.0318C59.9197 41.5689 60.0837 39.3137 63.0367 39.3137H66.5022C69.4552 39.3137 69.6397 41.5689 69.6397 43.0318V46.3638C69.6397 48.619 68.0402 49.2488 66.7893 49.1878V49.391C69.6192 49.3301 69.6397 51.4837 69.6397 52.2151V56.4004C69.6397 57.8836 69.4552 60.1184 66.5022 60.1184H63.0367C60.0837 60.1184 59.9197 57.8836 59.9197 56.4004V52.8449H64.1235V52.8449Z" fill="#0079C1"/>
<path d="M72.4082 39.3137H82.1282V60.1184H77.9244V41.894H76.612V60.1184H72.4082V39.3137Z" fill="#0079C1"/>
<path d="M89.1006 50.7523V41.894H89.6542C90.0849 41.894 90.413 42.28 90.413 42.9505V49.7161C90.413 50.3865 90.0849 50.7523 89.6542 50.7523H89.1006ZM84.8967 60.1184H89.1006V53.0481H91.4998C94.4322 53.0481 94.6168 50.7929 94.6168 49.3301V43.0318C94.6168 41.5689 94.4322 39.3137 91.4998 39.3137H84.8967V60.1184V60.1184Z" fill="#0079C1"/>
<path d="M102.901 56.7661C102.901 57.1318 102.635 57.4569 102.245 57.4569C101.999 57.4569 101.589 57.2944 101.589 56.7661V42.5848C101.589 42.0362 101.999 41.894 102.245 41.894C102.635 41.894 102.901 42.2191 102.901 42.5848V56.7661ZM97.385 56.4004C97.385 57.8836 97.5696 60.1184 100.502 60.1184H103.988C106.92 60.1184 107.105 57.8836 107.105 56.4004V43.0318C107.105 41.5689 106.92 39.3137 103.988 39.3137H100.502C97.5696 39.3137 97.385 41.5689 97.385 43.0318V56.4004V56.4004Z" fill="#0079C1"/>
<path d="M120.783 39.3137H126.279V60.1184H122.075V47.0749H121.911L119.737 60.1184H116.374L114.221 47.0749H114.077V60.1184H109.874V39.3137H115.328L118.076 53.942L120.783 39.3137Z" fill="#0079C1"/>
<path d="M33.5485 10.8493C32.2771 5.28245 29.0371 0.731416 28.6065 0C27.8887 1.03617 25.3254 5.05896 24.013 9.48809C22.5776 14.4658 22.3725 18.8543 22.8647 23.1818C23.3568 27.5094 25.2024 31.9588 25.2024 31.9588C26.1867 34.2953 27.6632 36.7943 28.627 38.0336C30.0214 36.2254 33.2409 30.8211 34.2457 23.7913C34.8199 19.8701 34.8404 16.4365 33.5485 10.8493V10.8493ZM28.6065 36.6318C27.9708 35.4534 26.9864 33.2185 26.8839 29.7239C26.8634 26.3919 28.2168 23.5069 28.627 22.8974C28.9756 23.5069 30.1444 26.0059 30.288 29.4395C30.37 32.7918 29.2422 35.433 28.6065 36.6318ZM33.1794 20.3374C33.1384 22.4504 32.8718 24.7056 32.5437 26.0669C32.6667 23.7507 32.3796 20.4796 31.8465 17.9197C31.3133 15.3801 29.7958 11.1135 28.5654 9.1427C27.4581 11.0322 26.0637 14.7096 25.3459 17.8994C24.6282 21.0892 24.6077 24.9697 24.6077 26.1278C24.4026 25.1526 23.931 21.658 24.054 18.1635C24.1771 15.2785 24.8538 12.2919 25.2229 10.9306C26.6583 6.35926 28.2784 3.45391 28.5654 2.98662C28.873 3.45391 30.9032 7.05004 31.9695 10.829C33.0153 14.5877 33.2204 18.2041 33.1794 20.3374Z" fill="#0079C1"/>
<path d="M30.7802 39.3137H20.9986V45.8355L21.0191 45.8152C23.3363 43.5193 27.0685 43.5193 29.3652 45.8152C31.6824 48.0704 31.6824 51.7884 29.3652 54.0639C29.3652 54.0842 29.3447 54.0842 29.3447 54.1046C29.3242 54.1046 29.3242 54.1249 29.3037 54.1452C27.007 56.4004 23.9925 57.5178 20.9986 57.5178C17.9841 57.5178 14.9697 56.4004 12.6525 54.1046C8.5922 50.1021 8.12055 43.8647 11.217 39.3137C11.6271 38.7042 12.1193 38.1353 12.6525 37.5867C14.9697 35.2909 17.9841 34.1735 20.9986 34.1735V18.5293C9.39195 18.5293 0 27.8345 0 39.3137C0 50.8132 9.39195 60.1184 20.9986 60.1184C27.048 60.1184 32.4822 57.5788 36.3169 53.5357V39.3137H30.7802V39.3137Z" fill="#0079C1"/>
</svg>
